<svg xmlns="http://www.w3.org/2000/svg" width="256" height="256" viewBox="0 0 100 100"><rect width="100" height="100" rx="20" fill="#4a90e2"></rect><path d="M71.28 58.10L71.28 58.10Q71.28 62.69 69.89 66.38Q68.50 70.07 65.75 72.68Q63.01 75.29 59.05 76.73Q55.09 78.17 49.95 78.17L49.95 78.17Q44.83 78.17 40.87 76.73Q36.91 75.29 34.20 72.68Q31.51 70.07 30.11 66.38Q28.72 62.69 28.72 58.10L28.72 58.10L28.72 22.46Q29.16 22.28 30.11 22.05Q31.05 21.83 32.14 21.83L32.14 21.83Q36.01 21.83 36.01 25.16L36.01 25.16L36.01 57.47Q36.01 61.07 37.09 63.77Q38.17 66.47 40.01 68.31Q41.86 70.16 44.42 71.06Q46.98 71.96 49.95 71.96L49.95 71.96Q52.92 71.96 55.49 71.06Q58.05 70.16 59.90 68.31Q61.74 66.47 62.83 63.77Q63.91 61.07 63.91 57.47L63.91 57.47L63.91 22.46Q64.35 22.28 65.30 22.05Q66.25 21.83 67.33 21.83L67.33 21.83Q71.28 21.83 71.28 25.16L71.28 25.16L71.28 58.10Z" fill="#ffffff"></path></svg>